<svg xmlns="http://www.w3.org/2000/svg" xmlns:xlink="http://www.w3.org/1999/xlink" xmlns:lucid="lucid" width="920" height="490"><g transform="translate(-160 -1298)" lucid:page-tab-id="0_0"><path d="M443.87 1508.43c0 32.05-54.6 58.03-121.94 58.03S200 1540.48 200 1508.43s54.6-58.03 121.94-58.03 121.93 25.98 121.93 58.03z" stroke="#000" stroke-width="5" fill="#fff"/><use xlink:href="#a" transform="matrix(1,0,0,1,205,1455.4038189122298) translate(80.86333333333334 58.50416666666666)"/><path d="M1040 1508.43c0 32.05-54.6 58.03-121.93 58.03-67.35 0-121.94-25.98-121.94-58.03s54.6-58.03 121.94-58.03 121.93 25.98 121.93 58.03z" stroke="#000" stroke-width="5" fill="#fff"/><use xlink:href="#b" transform="matrix(1,0,0,1,801.1290322580645,1455.4038189122298) translate(73.03000000000002 58.50416666666666)"/><path d="M565.8 1456.4a6 6 0 0 1 6-6h96.4a6 6 0 0 1 6 6v104.06a6 6 0 0 1-6 6h-96.4a6 6 0 0 1-6-6z" stroke="#000" stroke-width="5" fill="#fff"/><use xlink:href="#c" transform="matrix(1,0,0,1,577.8064516129033,1462.4038189122298) translate(17.481481481481488 53.951388888888886)"/><path d="M448.37 1508.43h92.2" stroke="#000" stroke-width="4" fill="none"/><path d="M448.42 1510.43h-2.12l.05-.7.02-1.3v-.65l-.06-1.27v-.07h2.12z" stroke="#000" stroke-width=".05"/><path d="M556.83 1508.43l-14.26 4.64v-9.27z" stroke="#000" stroke-width="4"/><path d="M678.7 1508.43h92.2" stroke="#000" stroke-width="4" fill="none"/><path d="M678.75 1510.43h-2.06v-4h2.04z" stroke="#000" stroke-width=".05"/><path d="M787.16 1508.43l-14.27 4.64v-9.27z" stroke="#000" stroke-width="4"/><path d="M918 1445.4v-.45l-.18-2.86-.3-2.8-.2-1.5m-2.3-9.9l-.55-1.68-.93-2.5-1.05-2.5-1.17-2.47-1.3-2.47-1.3-2.28m-5.88-8.3l-1.48-1.8-2.27-2.53-2.5-2.54-2.73-2.57-1.7-1.46m-8.04-6.24l-.24-.18-4.04-2.68-4.46-2.7-4.32-2.37m-9.18-4.42l-2.9-1.28-6.63-2.62-4.7-1.64m-9.7-3.05l-.96-.27-8.76-2.25-5.12-1.1m-10-1.87l-4.58-.76-10.56-1.33m-10.15-.86l-1.37-.1-11.6-.5h-2.3m-10.18.04l-10.8.45-4.45.38m-10.13 1l-7.5.94-7.62 1.3m-9.98 2l-2.1.44-8.76 2.25-3.9 1.18m-9.7 3.2l-1.76.6-6.64 2.63-5.72 2.55m-9.06 4.65l-1.6.88-4.46 2.7-4.03 2.7-2.75 1.98m-7.86 6.47l-2.1 2-2.5 2.53-2.27 2.52-2.08 2.5-1.32 1.74m-5.5 8.57l-1.06 2.05-1.17 2.48-1 2.4" stroke="#000" stroke-width="5" stroke-linejoin="round" fill="none"/><path d="M920.57 1447.95l-2.5-.05-2.5.03-.06-2.54 5-.12z" stroke="#000" stroke-width=".05"/><path d="M621.5 1439.95l-1.92-14.87 9.1 1.7z" stroke="#000" stroke-width="5"/><path d="M619.96 1445.9l-.02-.95-.18-2.86-.23-2.17m-1.4-7.85l-.18-.76-.72-2.57-.83-2.53-.93-2.5-1.05-2.5-.2-.43m-3.73-7.07l-1.52-2.38-1.72-2.47-1.88-2.5-1.93-2.3m-5.5-5.8l-2.15-2.02-3-2.6-3.32-2.63-.65-.47m-6.56-4.54l-.48-.32-4.46-2.7-4.93-2.7-.5-.25m-7.2-3.46l-3.75-1.68-6.65-2.63-.67-.24m-7.55-2.6l-7.14-2.14-4.38-1.12m-7.76-1.84l-6.13-1.3-5.62-.95m-7.9-1.18l-7.48-.95-4.4-.37m-7.96-.62l-10.5-.44h-1.46m-7.98 0h-2.26l-9.7.4m-7.96.6l-5.2.43-6.7.85m-7.9 1.16l-6.4 1.08-5.35 1.14m-7.78 1.8l-5.16 1.33-6.36 1.92m-7.56 2.55l-1.43.5-6.64 2.63-3.02 1.35m-7.2 3.42l-1.24.6-4.92 2.7-4.26 2.6m-6.6 4.5l-1.28.94-3.32 2.63-3 2.6-1.6 1.48m-5.53 5.73l-.4.42-2.06 2.5-1.88 2.5-1.72 2.46-1.1 1.7m-3.8 7.02l-.54 1.15-1.05 2.48-.7 1.9" stroke="#000" stroke-width="4" stroke-linejoin="round" fill="none"/><path d="M622 1447.9h-4l-.04-2 4-.1z" stroke="#000" stroke-width=".05"/><path d="M323.02 1441.53l-2.16-14.85 9.14 1.57z" stroke="#000" stroke-width="4"/><path d="M918.02 1570.97l-.08 3.9-.13 2.12m-.68 8l-.12 1.15-.8 5.43-1.02 5.3m-1.93 7.8l-.73 2.58-1.65 5.07-1.4 3.77m-3.1 7.4l-1.78 3.77-2.6 4.93-1.15 2m-4.2 6.87l-.62 1-3.44 4.94-2.94 3.87m-5.08 6.22l-4.44 4.92-3.8 3.86m-5.8 5.55l-.86.82-6.03 5.2-2.27 1.8m-6.36 4.9l-5.3 3.85-4.58 3.04m-6.78 4.3l-5.62 3.4-4.8 2.65m-7.08 3.77l-8.86 4.4-1.98.87m-7.33 3.27l-2.74 1.22-8.43 3.33m-7.5 2.85l-11.4 3.96m-7.67 2.34l-9 2.72-2.56.65m-7.78 2l-7.2 1.85-4.52.95m-7.86 1.67l-6.64 1.4-5.18.9m-7.92 1.32l-7.28 1.23-4.63.58m-7.98 1l-9 1.14-2.97.25m-8 .67l-11.6.97-.4.03m-8.03.33l-12.04.5m-8.03.12H614.3m-8.03-.1l-12.04-.5m-8.02-.33l-1.1-.05-10.9-.9m-8-.68l-3.66-.3-8.3-1.06m-7.98-1l-5.33-.67-6.58-1.13m-7.93-1.34l-5.87-1-5.96-1.25m-7.86-1.67l-5.2-1.1-6.53-1.67m-7.76-2l-3.23-.82-8.34-2.5m-7.7-2.33h-.02l-11.35-3.96m-7.53-2.8l-9.06-3.6-2.1-.93m-7.33-3.27l-2.6-1.15-8.24-4.1m-7.1-3.75l-5.4-2.96-5.04-3.06m-6.8-4.28l-5.13-3.4-4.76-3.47m-6.37-4.88l-2.8-2.22-6.02-5.2-.37-.35m-5.83-5.53l-4.25-4.34-4-4.43m-5.12-6.18l-3.33-4.4-3.44-4.95-.27-.43m-4.22-6.84l-1.5-2.6-2.57-4.92-1.48-3.17m-3.16-7.4l-1.64-4.38-1.64-5.07-.55-1.96m-1.97-7.8l-.14-.6-1-5.3" stroke="#000" stroke-width="4" stroke-linejoin="round" fill="none"/><path d="M918.05 1568.96l2.02-.02-.05 2.12-4-.08.05-2.06z" stroke="#000" stroke-width=".05"/><path d="M322.47 1575.4l5.8 13.85-9.24.76z" stroke="#000" stroke-width="4"/><defs><path d="M141-36C126-15 110 5 73 4 37 3 15-17 15-53c-1-64 63-63 125-63 3-35-9-54-41-54-24 1-41 7-42 31l-33-3c5-37 33-52 76-52 45 0 72 20 72 64v82c-1 20 7 32 28 27v20c-31 9-61-2-59-35zM48-53c0 20 12 33 32 33 41-3 63-29 60-74-43 2-92-5-92 41" id="d"/><path d="M84 4C-5 8 30-112 23-190h32v120c0 31 7 50 39 49 72-2 45-101 50-169h31l1 190h-30c-1-10 1-25-2-33-11 22-28 36-60 37" id="e"/><path d="M59-47c-2 24 18 29 38 22v24C64 9 27 4 27-40v-127H5v-23h24l9-43h21v43h35v23H59v120" id="f"/><path d="M100-194c62-1 85 37 85 99 1 63-27 99-86 99S16-35 15-95c0-66 28-99 85-99zM99-20c44 1 53-31 53-75 0-43-8-75-51-75s-53 32-53 75 10 74 51 75" id="g"/><path d="M114-163C36-179 61-72 57 0H25l-1-190h30c1 12-1 29 2 39 6-27 23-49 58-41v29" id="h"/><g id="a"><use transform="matrix(0.08703703703703701,0,0,0.08703703703703701,0,0)" xlink:href="#d"/><use transform="matrix(0.08703703703703701,0,0,0.08703703703703701,17.4074074074074,0)" xlink:href="#e"/><use transform="matrix(0.08703703703703701,0,0,0.08703703703703701,34.8148148148148,0)" xlink:href="#f"/><use transform="matrix(0.08703703703703701,0,0,0.08703703703703701,43.518518518518505,0)" xlink:href="#g"/><use transform="matrix(0.08703703703703701,0,0,0.08703703703703701,60.92592592592591,0)" xlink:href="#h"/></g><path d="M96-169c-40 0-48 33-48 73s9 75 48 75c24 0 41-14 43-38l32 2c-6 37-31 61-74 61-59 0-76-41-82-99-10-93 101-131 147-64 4 7 5 14 7 22l-32 3c-4-21-16-35-41-35zm19-42H79c-13-18-31-30-41-51 32-2 39 20 59 30 19-10 26-32 57-30-9 21-27 33-39 51" id="i"/><path d="M100-194c63 0 86 42 84 106H49c0 40 14 67 53 68 26 1 43-12 49-29l28 8c-11 28-37 45-77 45C44 4 14-33 15-96c1-61 26-98 85-98zm52 81c6-60-76-77-97-28-3 7-6 17-6 28h103" id="j"/><path d="M117-194c89-4 53 116 60 194h-32v-121c0-31-8-49-39-48C34-167 62-67 57 0H25l-1-190h30c1 10-1 24 2 32 11-22 29-35 61-36" id="k"/><path d="M141-36C126-15 110 5 73 4 37 3 15-17 15-53c-1-64 63-63 125-63 3-35-9-54-41-54-24 1-41 7-42 31l-33-3c5-37 33-52 76-52 45 0 72 20 72 64v82c-1 20 7 32 28 27v20c-31 9-61-2-59-35zM48-53c0 20 12 33 32 33 41-3 63-29 60-74-43 2-92-5-92 41zm25-158c8-23 27-35 38-54h36v5l-58 49H73" id="l"/><path d="M114-163C36-179 61-72 57 0H25l-1-190h30c1 12-1 29 2 39 6-27 23-49 58-41v29zm-27-48H51c-13-18-31-30-41-51 32-2 39 20 59 30 19-10 26-32 57-30-9 21-27 33-39 51" id="m"/><g id="b"><use transform="matrix(0.08703703703703701,0,0,0.08703703703703701,0,0)" xlink:href="#i"/><use transform="matrix(0.08703703703703701,0,0,0.08703703703703701,15.666666666666663,0)" xlink:href="#f"/><use transform="matrix(0.08703703703703701,0,0,0.08703703703703701,24.370370370370363,0)" xlink:href="#j"/><use transform="matrix(0.08703703703703701,0,0,0.08703703703703701,41.777777777777764,0)" xlink:href="#k"/><use transform="matrix(0.08703703703703701,0,0,0.08703703703703701,59.18518518518517,0)" xlink:href="#l"/><use transform="matrix(0.08703703703703701,0,0,0.08703703703703701,76.59259259259257,0)" xlink:href="#m"/></g><path fill="#3a414a" d="M85-194c31 0 48 13 60 33l-1-100h32l1 261h-30c-2-10 0-23-3-31C134-8 116 4 85 4 32 4 16-35 15-94c0-66 23-100 70-100zm9 24c-40 0-46 34-46 75 0 40 6 74 45 74 42 0 51-32 51-76 0-42-9-74-50-73" id="n"/><path fill="#3a414a" d="M34 0v-190h32V0H34zM24-211c8-23 27-35 38-54h36v5l-58 49H24" id="o"/><path fill="#3a414a" d="M24 0v-261h32V0H24" id="p"/><path fill="#3a414a" d="M100-194c62-1 85 37 85 99 1 63-27 99-86 99S16-35 15-95c0-66 28-99 85-99zM99-20c44 1 53-31 53-75 0-43-8-75-51-75s-53 32-53 75 10 74 51 75" id="q"/><g id="c"><use transform="matrix(0.08641975308641973,0,0,0.08641975308641973,0,0)" xlink:href="#n"/><use transform="matrix(0.08641975308641973,0,0,0.08641975308641973,17.283950617283946,0)" xlink:href="#o"/><use transform="matrix(0.08641975308641973,0,0,0.08641975308641973,25.925925925925917,0)" xlink:href="#p"/><use transform="matrix(0.08641975308641973,0,0,0.08641975308641973,32.753086419753075,0)" xlink:href="#q"/></g></defs></g></svg>